<?xml version="1.0" encoding="utf-8"?>
<!-- Generator: Adobe Illustrator 22.1.0, SVG Export Plug-In . SVG Version: 6.00 Build 0)  -->
<svg version="1.1" id="Layer_2" xmlns="http://www.w3.org/2000/svg" xmlns:xlink="http://www.w3.org/1999/xlink" x="0px" y="0px"
	 viewBox="0 0 569.7 548.2" style="enable-background:new 0 0 569.7 548.2;" xml:space="preserve">
<style type="text/css">
	.st0{clip-path:url(#SVGID_2_);fill:url(#SVGID_3_);}
	.st1{clip-path:url(#SVGID_5_);fill:url(#SVGID_6_);}
	.st2{clip-path:url(#SVGID_8_);fill:url(#SVGID_9_);}
</style>
<g>
	<g>
		<defs>
			<path id="SVGID_1_" d="M150.1,47.3c1,10.4-1,21-5.2,30.8c-1,2.5-2.3,4.8-3.5,7.1c-1.2,2.2-2.6,4.5-3.9,6.6l-4,6.1
				c-1.4,2-2.5,3.9-3.7,5.8c-4.7,7.6-8.3,15.4-11.5,24.2c-3.4,8.8-5.7,18.3-9.9,27.9c-0.8-2.5-1.4-5-2-7.5c-0.6-2.5-1-5.1-1.2-7.7
				c-0.2-2.6-0.4-5.2-0.5-7.8c0.1-2.6,0.2-5.2,0.3-7.8c0.9-10.4,4.3-21.3,10.1-30.5c5.8-9.2,12.6-16,18.1-23.3
				C139.1,64,144.1,55.9,150.1,47.3z M41.5,243.4c0.5,2.1,1.1,4.2,1.5,6.3l0.7,3.2l0.6,3.3l1.3,6.7c0.5,2.4,1,4.7,1.7,7.3
				c1.3,5,3.5,10.3,6.4,15.1c1.5,2.4,3.2,4.6,5,6.7c1.9,2,3.8,3.9,5.8,5.6c2.1,1.6,4.2,3.1,6.4,4.6c2.2,1.4,4.5,2.5,6.8,3.6
				c1.2,0.5,2.3,1.1,3.5,1.6c1.2,0.4,2.4,0.9,3.6,1.2c2.4,0.8,4.9,1.5,7.4,2c-5.4-8.9-11.6-16.1-16.2-23.4c-1.1-1.9-2.1-3.7-3.2-5.4
				c-0.8-1.9-1.8-3.6-2.6-5.4c-0.6-1.9-1.6-3.5-2.1-5.5l-1-2.9l-0.8-3.1c-0.7-2-1.2-4.4-1.8-6.6c-0.7-2.4-1.3-4.7-2.2-7.1l-1.3-3.6
				c-0.5-1.2-1.1-2.4-1.6-3.6c-0.6-1.2-1-2.4-1.7-3.5l-2.1-3.4c-5.7-8.9-13.5-16-22.7-20.7C35.9,226.3,39.4,234.9,41.5,243.4z
				 M47.6,322.1l2.3,3.1c0.9,1,1.8,1.8,2.7,2.8c1.8,1.9,3.9,3.4,6,4.9c1,0.8,2.1,1.5,3.2,2.1l3.3,1.8c2.2,1,4.5,2,6.6,2.8
				c8.8,3.2,16.6,5,24.5,7.4c7.9,2.3,15.7,5.2,25.1,8c-3.7-8.9-10.3-16.3-18.1-21.9c-7.8-5.6-16.8-9.2-24.5-12
				c-7.8-2.9-13.9-5.4-20.2-9.8c-6.3-4.3-12.2-10.4-19.6-16.7C39,304.2,41.7,313.7,47.6,322.1z M110.7,380.7c7,5.5,15.8,9,24.1,10.6
				c8.3,1.7,16,2.3,23.8,3c7.8,0.5,15.7,1.2,24.5,0.8c-6.1-6.3-13.5-10.7-21.3-14c-7.8-3.3-16-5.1-23.4-6.7
				c-7.5-1.5-14.1-3.1-21.1-5.6c-7-2.4-14.2-5.7-22.6-8.5C98.2,368.4,103.7,375.2,110.7,380.7z M179.7,420.7
				c11.4,1.7,23,0.7,33.7-1.5c10.8-2.1,21-5.3,31.1-8c10.1-2.8,20.1-5,31.2-6.8c-10.3-4.4-21.9-5.4-33-4.7
				c-11.1,0.7-21.8,2.9-32.1,5c-10.3,2-20.2,3.8-30.3,4.4c-10.1,0.6-20.4-0.2-31.5-1.5C157.5,414.6,168.4,419,179.7,420.7z M165,354
				c4,6.6,8.2,13.2,13.4,19.6c5.1,6.3,11.4,12.5,19.4,16.6c0.9,0.6,2,0.9,3.1,1.4c1,0.4,2.1,0.8,3.1,1.2c2.1,0.6,4.4,1,6.5,1.4
				c2.2,0.1,4.4,0.2,6.5,0c2.2-0.4,4.2-0.8,6.2-1.4c-7.8-3.4-13.8-7.3-18.9-12.2c-5.1-4.8-9.6-10.4-14.4-16.3
				c-4.8-5.9-9.9-12-15.9-17.6c-6-5.5-12.9-10.6-21-13.1C157.2,340.8,161,347.3,165,354z M77.1,133.3c-0.3,2.8-0.8,5.6-1.1,8.3
				l-1.8,7.9c-1.6,5.2-3.3,10.3-5.7,15.7l-3.5,8.5c-0.6,1.4-1.1,3-1.7,4.6c-0.5,1.6-1.2,3-1.6,4.7c-0.8,3.4-1.9,6.6-2.2,10.1
				l-0.7,5.2c-0.1,1.7,0,3.5,0,5.2c0.4,13.9,5.2,26.6,12.6,37.2c0.5-13.1,0.4-25,2.9-35.8c0.3-1.3,0.5-2.7,0.9-4l1.3-3.9
				c0.7-2.6,1.9-5.1,2.9-7.7c2.2-5.2,4.8-10.5,7.3-16.5c1.2-2.9,2.4-6.2,3.4-9.4c0.6-1.6,0.9-3.3,1.3-5c0.4-1.7,0.8-3.4,1.1-5.1
				c0.3-3.5,0.8-7,0.8-10.4c-0.2-3.4-0.3-6.9-0.8-10.2c-0.7-3.3-1.4-6.6-2.2-9.8c-0.9-3.2-2.2-6.2-3.4-9.2c-0.7-1.5-1.2-3-1.9-4.5
				c-0.8-1.4-1.6-2.9-2.4-4.2c-1.6-2.8-3.4-5.5-5.2-8.2C77.1,109.9,78.3,121.9,77.1,133.3z M97.1,186.9c-0.8,2-1.6,4-2.4,6.1
				c-0.7,2-1.3,4.1-2,6.2c-1.2,4.2-2.5,8.3-3.5,12.6c-0.9,4.3-1.7,8.6-2.5,12.9c-0.7,4.4-1,8.8-1.4,13.3c-0.3,2.2-0.2,4.5-0.2,6.8
				l0.1,6.8c-0.1,2.3,0.5,4.6,0.7,6.8l0.9,6.9l1.7,6.8c0.6,2.3,1.1,4.5,2,6.7l2.5,6.5c0.8,2.2,1.9,4.2,2.9,6.2c2,4.2,4.3,8,6.6,11.8
				c2.4,3.8,4.8,7.3,7.4,10.9c2.5,3.5,5.2,6.9,7.8,10.3c5.3,6.7,10.6,13.2,16.1,19.7l8.2,9.8c2.7,3.3,5.6,6.6,8.6,9.8
				c-4.3-16.9-11.8-32.8-19.9-47.8c-8.2-15-16.4-29-21.4-43.6c-5.2-14.4-6.6-30.2-7.1-46.6c-0.5-16.4,0.8-33.3,0.2-50.8
				C100.5,178.9,98.7,182.8,97.1,186.9z M194.7,453.3l-33,45.9l-32.4-45.9h-0.1v67.4h10.1v-36.1l22.3,30.8h0.2l22.8-32.4v37.6h10.4
				v-67.4H194.7z M221.5,497.3v-41.7h-10.4v41.9c0,4.6,1.1,8.8,3.3,12.4c2.2,3.6,5.2,6.4,9.1,8.4c3.8,2,8.1,3,12.7,3
				c4.6,0,8.9-1,12.8-3c3.9-2,6.9-4.8,9.2-8.4c2.2-3.6,3.4-7.7,3.4-12.4v-41.9h-10.3v41.7c0,2.6-0.7,4.9-2,7.1
				c-1.3,2.1-3.1,3.8-5.4,5.1c-2.3,1.3-4.8,1.9-7.6,1.9c-2.7,0-5.2-0.6-7.4-1.9c-2.3-1.3-4.1-3-5.4-5.1
				C222.1,502.1,221.5,499.8,221.5,497.3z M324.8,455.6l0.2,43.8l-46.7-46h-0.5v67.3h10.5l-0.3-43.2l46.9,45.5h0.3v-67.4H324.8z
				 M400.7,515.6l-4.4-9.3c-1.7,1.5-3.9,2.7-6.4,3.7c-2.5,1-5.4,1.4-8.5,1.4c-4.4,0-8.3-1-11.7-3c-3.4-2-6-4.8-7.8-8.3
				c-1.8-3.5-2.7-7.6-2.7-12c0-4.2,1-8.1,2.9-11.7c2-3.5,4.6-6.3,7.9-8.4c3.3-2.1,6.9-3.1,10.7-3.1c5,0,9.9,1.7,14.7,5.1l4.1-9.7
				c-2.5-1.5-5.4-2.8-8.6-3.8c-3.3-1-6.8-1.5-10.6-1.5c-6.2,0-11.7,1.4-16.6,4.3c-4.9,2.9-8.6,6.9-11.4,12
				c-2.7,5.1-4.1,10.9-4.1,17.4c0,6,1.4,11.4,4.1,16.4c2.7,5,6.6,8.9,11.6,11.9c5,3,10.9,4.4,17.7,4.4c4,0,7.7-0.6,11-1.9
				C396.2,518.3,398.8,517,400.7,515.6z M468.7,471.7c-3-5.1-7.1-9.2-12.2-12.2c-5.1-3-10.6-4.6-16.6-4.6c-6,0-11.6,1.5-16.7,4.6
				c-5.1,3-9.1,7.1-12.1,12.2c-3,5.1-4.5,10.6-4.5,16.6c0,6.1,1.5,11.7,4.5,16.7c3,5.1,7,9.1,12.1,12c5.1,3,10.7,4.4,16.7,4.4
				c6,0,11.5-1.5,16.6-4.5c5.1-3,9.2-7,12.2-12.1c3-5.1,4.5-10.6,4.5-16.6C473.2,482.4,471.7,476.9,468.7,471.7z M459.5,499.9
				c-2,3.5-4.7,6.3-8.1,8.4c-3.4,2.1-7.2,3.1-11.3,3.1c-4.2,0-8-1-11.5-3.1c-3.5-2.1-6.2-4.9-8.3-8.4c-2-3.5-3-7.4-3-11.6
				c0-4.2,1-8.1,3-11.7c2-3.6,4.7-6.4,8.1-8.5c3.4-2.1,7.2-3.1,11.4-3.1c4.1,0,7.9,1,11.3,3.1c3.5,2.1,6.2,4.9,8.2,8.5
				c2,3.6,3,7.5,3,11.7C462.5,492.5,461.5,496.4,459.5,499.9z M404.6,189.1L351.4,106c-0.5-0.7-1.4-0.9-2.1-0.5l-73.1,46.9
				c-0.7,0.5-0.9,1.4-0.5,2.1l53.3,83.1c0.5,0.7,1.4,0.9,2.1,0.5l73.1-46.9C404.9,190.8,405.1,189.8,404.6,189.1z M346.5,102.9
				c-3.6-1.8-5.7-5.2-6.1-9.7c0-0.5-0.6-0.8-1-0.5l-70.8,45.4c-0.4,0.3-0.4,0.9,0.1,1.1c3.9,2.2,5.8,5.5,6.2,9.6
				c0,0.5,0.6,0.8,1,0.5l70.7-45.3C347,103.7,346.9,103.1,346.5,102.9z M345,80.1l-2-3.1c-1.4-2.2-4.4-2.9-6.7-1.5l-82,52.6
				c-2.2,1.4-2.9,4.4-1.5,6.7l2,3.1c1.4,2.2,4.4,2.9,6.7,1.5l82-52.6C345.8,85.3,346.4,82.3,345,80.1z M334.2,241.3
				c3.6,1.8,5.7,5.2,6.1,9.7c0,0.5,0.6,0.8,1,0.5l70.8-45.4c0.4-0.3,0.4-0.9-0.1-1.1c-3.9-2.2-5.8-5.5-6.2-9.6c0-0.5-0.6-0.8-1-0.5
				l-70.7,45.3C333.7,240.4,333.8,241,334.2,241.3z M335.7,264l2,3.1c1.4,2.2,4.4,2.9,6.7,1.5l82-52.6c2.2-1.4,2.9-4.4,1.5-6.7
				l-2-3.1c-1.4-2.2-4.4-2.9-6.7-1.5l-82,52.6C334.9,258.8,334.3,261.8,335.7,264z M311.8,188.8l-10.9-4.7
				c-5.9,0.2-6.5,3.5-12.2,7.2c-37.3,28.1-123.1,67.3-136.9,85.7c-6.8,11.7,2.6,23.3,14.1,22c17.3-3.5,88.1-63,134-88
				c6.2-3.3,10.3-2.8,13.5-8.3L311.8,188.8z M159.6,304.5L159.6,304.5c4.4-2.8,5.6-8.6,2.8-12.9l-5.3-8.2c-2.8-4.4-8.6-5.6-12.9-2.8
				l0,0c-4.4,2.8-5.6,8.6-2.8,12.9l5.3,8.2C149.5,306,155.2,307.3,159.6,304.5z M291.2,216.6l-12.1-19c-0.8-1.3-2.5-1.7-3.8-0.8
				l-0.5,0.3c-1.3,0.8-1.7,2.5-0.8,3.8l12.1,19c0.8,1.3,2.5,1.7,3.8,0.8l0.5-0.3C291.7,219.6,292,217.9,291.2,216.6z M167.6,297.8
				L153.7,276c-0.7-1.1-2.2-1.4-3.3-0.7l-0.7,0.4c-1.1,0.7-1.4,2.2-0.7,3.3l13.9,21.7c0.7,1.1,2.2,1.4,3.3,0.7l0.7-0.4
				C168,300.3,168.3,298.9,167.6,297.8z M479,333H290.9c-3.5,0-6.3,2.8-6.3,6.3v12.7c0,3.5,2.8,6.3,6.3,6.3H479
				c3.5,0,6.3-2.8,6.3-6.3v-12.7C485.4,335.9,482.5,333,479,333z M470.6,316.3H299.3c-2.3,0-4.2,1.9-4.2,4.2v4.1
				c0,2.3,1.9,4.2,4.2,4.2h171.3c2.3,0,4.2-1.9,4.2-4.2v-4.1C474.9,318.2,473,316.3,470.6,316.3z"/>
		</defs>
		<clipPath id="SVGID_2_">
			<use xlink:href="#SVGID_1_"  style="overflow:visible;"/>
		</clipPath>
		
			<linearGradient id="SVGID_3_" gradientUnits="userSpaceOnUse" x1="-1307.1257" y1="1456.2009" x2="-744.161" y2="1456.2009" gradientTransform="matrix(6.123234e-17 -1 1 6.123234e-17 -1165.2075 -750.7925)">
			<stop  offset="0" style="stop-color:#F6871F"/>
			<stop  offset="0.1513" style="stop-color:#FBAA3D"/>
			<stop  offset="0.3718" style="stop-color:#B4B541"/>
			<stop  offset="0.3819" style="stop-color:#ACB546"/>
			<stop  offset="0.4588" style="stop-color:#64B563"/>
			<stop  offset="0.4949" style="stop-color:#31B66E"/>
			<stop  offset="0.5308" style="stop-color:#00AE91"/>
			<stop  offset="0.6129" style="stop-color:#009FDC"/>
			<stop  offset="0.6142" style="stop-color:#009FDE"/>
			<stop  offset="0.6537" style="stop-color:#009BDA"/>
			<stop  offset="0.7988" style="stop-color:#008BCF"/>
			<stop  offset="0.9194" style="stop-color:#0082C9"/>
			<stop  offset="1" style="stop-color:#007EC6"/>
		</linearGradient>
		<polygon class="st0" points="599.4,-6.6 599.4,556.3 -17.4,556.3 -17.4,-6.6 		"/>
	</g>
	<g>
		<defs>
			<path id="SVGID_4_" d="M423.5,363.3c-32.5,26.8-74.3,42.6-119.5,41.8c1.9,0.1,3.7,0.3,5.6,0.3c48.5,2.2,93.5-13.9,128.5-42.1
				H423.5z M327.2,24.7c-81.1-3.8-152.8,43.8-183.5,114c31.7-62.1,97.6-103.3,171.8-99.8c101.1,4.7,179.3,90.4,174.6,191.5
				c-1.4,29.5-9.7,56.9-23.2,81h3.7c3.9,0,7.3,2.5,8.6,6c17.3-27.2,28-59,29.6-93.5C513.7,118.7,432.4,29.5,327.2,24.7z"/>
		</defs>
		<clipPath id="SVGID_5_">
			<use xlink:href="#SVGID_4_"  style="overflow:visible;"/>
		</clipPath>
		
			<linearGradient id="SVGID_6_" gradientUnits="userSpaceOnUse" x1="-2161.2742" y1="1289.9034" x2="-1598.3094" y2="1289.9034" gradientTransform="matrix(-0.6487 -0.761 0.761 -0.6487 -1910.1165 -318.9367)">
			<stop  offset="0" style="stop-color:#F6871F"/>
			<stop  offset="0.1513" style="stop-color:#FBAA3D"/>
			<stop  offset="0.3718" style="stop-color:#B4B541"/>
			<stop  offset="0.3819" style="stop-color:#ACB546"/>
			<stop  offset="0.4588" style="stop-color:#64B563"/>
			<stop  offset="0.4949" style="stop-color:#31B66E"/>
			<stop  offset="0.5308" style="stop-color:#00AE91"/>
			<stop  offset="0.6129" style="stop-color:#009FDC"/>
			<stop  offset="0.6142" style="stop-color:#009FDE"/>
			<stop  offset="0.7624" style="stop-color:#008FD0"/>
			<stop  offset="0.9048" style="stop-color:#0084C7"/>
			<stop  offset="1" style="stop-color:#0080C4"/>
		</linearGradient>
		<polygon class="st1" points="343.1,-139.4 708.3,289 238.9,689.1 -126.3,260.7 		"/>
	</g>
</g>
</svg>
